<svg xmlns="http://www.w3.org/2000/svg" version="1.1" xmlns:xlink="http://www.w3.org/1999/xlink" xmlns:svgjs="http://svgjs.com/svgjs" width="1440" height="560" preserveAspectRatio="none" viewBox="0 0 1440 560"><g mask="url(&quot;#SvgjsMask1004&quot;)" fill="none"><path d="M456.42 213.53L481.79 213.53L481.79 238.9L456.42 238.9z" fill="#037b0b"></path><path d="M835.45 384.24L880.2 384.24L880.2 439.17L835.45 439.17z" stroke="#e73635"></path><path d="M585.65 450.25 a47.87 47.87 0 1 0 95.74 0 a47.87 47.87 0 1 0 -95.74 0z" fill="#e73635"></path><path d="M385.75 77.46L387.72 77.46L387.72 91.12L385.75 91.12z" fill="#e73635"></path><path d="M404.33 154.42L456.08 154.42L456.08 206.17L404.33 206.17z" fill="#037b0b"></path><path d="M95.8 542.84a43.57 43.57 0 1 0 55.18-67.45z" stroke="#e73635"></path><path d="M1062.46 529.56a50.91 50.91 0 1 0 101.22 10.98z" stroke="#e73635"></path><path d="M686.96 400.75L691.46 400.75L691.46 427.24L686.96 427.24z" fill="#e73635"></path><path d="M738.27 467.45L740.66 467.45L740.66 469.84L738.27 469.84z" stroke="#d3b714"></path><path d="M1171.64 524.62L1214.05 524.62L1214.05 562.28L1171.64 562.28z" stroke="#e73635"></path><path d="M1397.29 82.33L1420.97 82.33L1420.97 106.01L1397.29 106.01z" fill="#037b0b"></path><path d="M171.16 22.03 a54.11 54.11 0 1 0 108.22 0 a54.11 54.11 0 1 0 -108.22 0z" fill="#d3b714"></path><path d="M3.13 132.82 a47.7 47.7 0 1 0 95.4 0 a47.7 47.7 0 1 0 -95.4 0z" stroke="#d3b714"></path><path d="M225.54 100.22L254.47 100.22L254.47 129.15L225.54 129.15z" stroke="#e73635"></path><path d="M67.69 305.28 a39.42 39.42 0 1 0 78.84 0 a39.42 39.42 0 1 0 -78.84 0z" stroke="#d3b714"></path><path d="M201.53 552.18 a47.41 47.41 0 1 0 94.82 0 a47.41 47.41 0 1 0 -94.82 0z" fill="#037b0b"></path><path d="M894.16 519.07a49.1 49.1 0 1 0-74.35 64.15z" fill="#e73635"></path><path d="M102.34 316.91L124.04 316.91L124.04 326.07L102.34 326.07z" stroke="#e73635"></path><path d="M61.94 377.33a18.11 18.11 0 1 0-16.65 32.17z" fill="#d3b714"></path><path d="M690.3 203.47 a53.89 53.89 0 1 0 107.78 0 a53.89 53.89 0 1 0 -107.78 0z" fill="#e73635"></path><path d="M1055.45 109.96a10.49 10.49 0 1 0-19.49 7.78z" fill="#037b0b"></path><path d="M270.67 406.54 a22.94 22.94 0 1 0 45.88 0 a22.94 22.94 0 1 0 -45.88 0z" stroke="#037b0b"></path><path d="M1225.81 113.05L1226.05 113.05L1226.05 133.94L1225.81 133.94z" fill="#037b0b"></path><path d="M716.15 102.43L730.66 102.43L730.66 116.94L716.15 116.94z" stroke="#037b0b"></path><path d="M472.78 427.48L498.74 427.48L498.74 430.87L472.78 430.87z" stroke="#037b0b"></path><path d="M1058.56 204.55 a13.44 13.44 0 1 0 26.88 0 a13.44 13.44 0 1 0 -26.88 0z" fill="#037b0b"></path><path d="M446.02 346.09 a35.56 35.56 0 1 0 71.12 0 a35.56 35.56 0 1 0 -71.12 0z" stroke="#e73635"></path><path d="M-3.17 95.48 a5.27 5.27 0 1 0 10.54 0 a5.27 5.27 0 1 0 -10.54 0z" fill="#037b0b"></path><path d="M810.11 52.36L860.81 52.36L860.81 88.62L810.11 88.62z" stroke="#037b0b"></path><path d="M1091.17 125.45a44.76 44.76 0 1 0 0.57 89.52z" stroke="#e73635"></path><path d="M645.94 552.74 a38.46 38.46 0 1 0 76.92 0 a38.46 38.46 0 1 0 -76.92 0z" fill="#d3b714"></path><path d="M392.04 367.48L396.97 367.48L396.97 386.36L392.04 386.36z" fill="#037b0b"></path><path d="M178.98 192.9 a48.97 48.97 0 1 0 97.94 0 a48.97 48.97 0 1 0 -97.94 0z" stroke="#e73635"></path></g><defs><mask id="SvgjsMask1004"><rect width="1440" height="560" fill="#ffffff"></rect></mask></defs></svg>