<svg xmlns="http://www.w3.org/2000/svg" version="1.1" xmlns:xlink="http://www.w3.org/1999/xlink" xmlns:svgjs="http://svgjs.com/svgjs" width="1440" height="560" preserveAspectRatio="none" viewBox="0 0 1440 560"><g mask="url(&quot;#SvgjsMask1003&quot;)" fill="none"><path d="M97.78 266.92L162.74 304.42L162.74 379.42L97.78 416.92L32.83 379.42L32.83 304.42zM32.83 379.42L97.78 416.92L97.78 491.92L32.83 529.42L-32.12 491.92L-32.12 416.92zM227.69 41.92L292.64 79.42L292.64 154.42L227.69 191.92L162.74 154.42L162.74 79.42zM227.69 266.92L292.64 304.42L292.64 379.42L227.69 416.92L162.74 379.42L162.74 304.42zM162.74 379.42L227.69 416.92L227.69 491.92L162.74 529.42L97.78 491.92L97.78 416.92zM357.6 266.92L422.55 304.42L422.55 379.42L357.6 416.92L292.64 379.42L292.64 304.42zM487.51 266.92L552.46 304.42L552.46 379.42L487.51 416.92L422.55 379.42L422.55 304.42zM422.55 379.42L487.51 416.92L487.51 491.92L422.55 529.42L357.6 491.92L357.6 416.92zM487.51 491.92L552.46 529.42L552.46 604.42L487.51 641.92L422.55 604.42L422.55 529.42zM617.41 41.92L682.37 79.42L682.37 154.42L617.41 191.92L552.46 154.42L552.46 79.42zM552.46 154.42L617.41 191.92L617.41 266.92L552.46 304.42L487.51 266.92L487.51 191.92zM682.37 154.42L747.32 191.92L747.32 266.92L682.37 304.42L617.41 266.92L617.41 191.92zM877.23 41.92L942.18 79.42L942.18 154.42L877.23 191.92L812.27 154.42L812.27 79.42zM812.27 154.42L877.23 191.92L877.23 266.92L812.27 304.42L747.32 266.92L747.32 191.92zM877.23 491.92L942.18 529.42L942.18 604.42L877.23 641.92L812.27 604.42L812.27 529.42zM1007.14 41.92L1072.09 79.42L1072.09 154.42L1007.14 191.92L942.18 154.42L942.18 79.42zM1007.14 266.92L1072.09 304.42L1072.09 379.42L1007.14 416.92L942.18 379.42L942.18 304.42zM1072.09 154.42L1137.04 191.92L1137.04 266.92L1072.09 304.42L1007.14 266.92L1007.14 191.92zM1137.04 266.92L1202 304.42L1202 379.42L1137.04 416.92L1072.09 379.42L1072.09 304.42zM1266.95 491.92L1331.9 529.42L1331.9 604.42L1266.95 641.92L1202 604.42L1202 529.42zM1331.9 -70.58L1396.86 -33.08L1396.86 41.92L1331.9 79.42L1266.95 41.92L1266.95 -33.08zM1331.9 379.42L1396.86 416.92L1396.86 491.92L1331.9 529.42L1266.95 491.92L1266.95 416.92zM1461.81 -70.58L1526.77 -33.08L1526.77 41.92L1461.81 79.42L1396.86 41.92L1396.86 -33.08zM1461.81 154.42L1526.77 191.92L1526.77 266.92L1461.81 304.42L1396.86 266.92L1396.86 191.92zM1526.77 266.92L1591.72 304.42L1591.72 379.42L1526.77 416.92L1461.81 379.42L1461.81 304.42z" stroke="rgba(214, 255, 221, 1)" stroke-width="2"></path><path d="M90.28 266.92 a7.5 7.5 0 1 0 15 0 a7.5 7.5 0 1 0 -15 0zM155.24 304.42 a7.5 7.5 0 1 0 15 0 a7.5 7.5 0 1 0 -15 0zM155.24 379.42 a7.5 7.5 0 1 0 15 0 a7.5 7.5 0 1 0 -15 0zM90.28 416.92 a7.5 7.5 0 1 0 15 0 a7.5 7.5 0 1 0 -15 0zM25.33 379.42 a7.5 7.5 0 1 0 15 0 a7.5 7.5 0 1 0 -15 0zM25.33 304.42 a7.5 7.5 0 1 0 15 0 a7.5 7.5 0 1 0 -15 0zM90.28 491.92 a7.5 7.5 0 1 0 15 0 a7.5 7.5 0 1 0 -15 0zM25.33 529.42 a7.5 7.5 0 1 0 15 0 a7.5 7.5 0 1 0 -15 0zM-39.62 491.92 a7.5 7.5 0 1 0 15 0 a7.5 7.5 0 1 0 -15 0zM-39.62 416.92 a7.5 7.5 0 1 0 15 0 a7.5 7.5 0 1 0 -15 0zM220.19 41.92 a7.5 7.5 0 1 0 15 0 a7.5 7.5 0 1 0 -15 0zM285.14 79.42 a7.5 7.5 0 1 0 15 0 a7.5 7.5 0 1 0 -15 0zM285.14 154.42 a7.5 7.5 0 1 0 15 0 a7.5 7.5 0 1 0 -15 0zM220.19 191.92 a7.5 7.5 0 1 0 15 0 a7.5 7.5 0 1 0 -15 0zM155.24 154.42 a7.5 7.5 0 1 0 15 0 a7.5 7.5 0 1 0 -15 0zM155.24 79.42 a7.5 7.5 0 1 0 15 0 a7.5 7.5 0 1 0 -15 0zM220.19 266.92 a7.5 7.5 0 1 0 15 0 a7.5 7.5 0 1 0 -15 0zM285.14 304.42 a7.5 7.5 0 1 0 15 0 a7.5 7.5 0 1 0 -15 0zM285.14 379.42 a7.5 7.5 0 1 0 15 0 a7.5 7.5 0 1 0 -15 0zM220.19 416.92 a7.5 7.5 0 1 0 15 0 a7.5 7.5 0 1 0 -15 0zM220.19 491.92 a7.5 7.5 0 1 0 15 0 a7.5 7.5 0 1 0 -15 0zM155.24 529.42 a7.5 7.5 0 1 0 15 0 a7.5 7.5 0 1 0 -15 0zM350.1 266.92 a7.5 7.5 0 1 0 15 0 a7.5 7.5 0 1 0 -15 0zM415.05 304.42 a7.5 7.5 0 1 0 15 0 a7.5 7.5 0 1 0 -15 0zM415.05 379.42 a7.5 7.5 0 1 0 15 0 a7.5 7.5 0 1 0 -15 0zM350.1 416.92 a7.5 7.5 0 1 0 15 0 a7.5 7.5 0 1 0 -15 0zM480.01 266.92 a7.5 7.5 0 1 0 15 0 a7.5 7.5 0 1 0 -15 0zM544.96 304.42 a7.5 7.5 0 1 0 15 0 a7.5 7.5 0 1 0 -15 0zM544.96 379.42 a7.5 7.5 0 1 0 15 0 a7.5 7.5 0 1 0 -15 0zM480.01 416.92 a7.5 7.5 0 1 0 15 0 a7.5 7.5 0 1 0 -15 0zM480.01 491.92 a7.5 7.5 0 1 0 15 0 a7.5 7.5 0 1 0 -15 0zM415.05 529.42 a7.5 7.5 0 1 0 15 0 a7.5 7.5 0 1 0 -15 0zM350.1 491.92 a7.5 7.5 0 1 0 15 0 a7.5 7.5 0 1 0 -15 0zM544.96 529.42 a7.5 7.5 0 1 0 15 0 a7.5 7.5 0 1 0 -15 0zM544.96 604.42 a7.5 7.5 0 1 0 15 0 a7.5 7.5 0 1 0 -15 0zM480.01 641.92 a7.5 7.5 0 1 0 15 0 a7.5 7.5 0 1 0 -15 0zM415.05 604.42 a7.5 7.5 0 1 0 15 0 a7.5 7.5 0 1 0 -15 0zM609.91 41.92 a7.5 7.5 0 1 0 15 0 a7.5 7.5 0 1 0 -15 0zM674.87 79.42 a7.5 7.5 0 1 0 15 0 a7.5 7.5 0 1 0 -15 0zM674.87 154.42 a7.5 7.5 0 1 0 15 0 a7.5 7.5 0 1 0 -15 0zM609.91 191.92 a7.5 7.5 0 1 0 15 0 a7.5 7.5 0 1 0 -15 0zM544.96 154.42 a7.5 7.5 0 1 0 15 0 a7.5 7.5 0 1 0 -15 0zM544.96 79.42 a7.5 7.5 0 1 0 15 0 a7.5 7.5 0 1 0 -15 0zM609.91 266.92 a7.5 7.5 0 1 0 15 0 a7.5 7.5 0 1 0 -15 0zM480.01 191.92 a7.5 7.5 0 1 0 15 0 a7.5 7.5 0 1 0 -15 0zM739.82 191.92 a7.5 7.5 0 1 0 15 0 a7.5 7.5 0 1 0 -15 0zM739.82 266.92 a7.5 7.5 0 1 0 15 0 a7.5 7.5 0 1 0 -15 0zM674.87 304.42 a7.5 7.5 0 1 0 15 0 a7.5 7.5 0 1 0 -15 0zM869.73 41.92 a7.5 7.5 0 1 0 15 0 a7.5 7.5 0 1 0 -15 0zM934.68 79.42 a7.5 7.5 0 1 0 15 0 a7.5 7.5 0 1 0 -15 0zM934.68 154.42 a7.5 7.5 0 1 0 15 0 a7.5 7.5 0 1 0 -15 0zM869.73 191.92 a7.5 7.5 0 1 0 15 0 a7.5 7.5 0 1 0 -15 0zM804.77 154.42 a7.5 7.5 0 1 0 15 0 a7.5 7.5 0 1 0 -15 0zM804.77 79.42 a7.5 7.5 0 1 0 15 0 a7.5 7.5 0 1 0 -15 0zM869.73 266.92 a7.5 7.5 0 1 0 15 0 a7.5 7.5 0 1 0 -15 0zM804.77 304.42 a7.5 7.5 0 1 0 15 0 a7.5 7.5 0 1 0 -15 0zM869.73 491.92 a7.5 7.5 0 1 0 15 0 a7.5 7.5 0 1 0 -15 0zM934.68 529.42 a7.5 7.5 0 1 0 15 0 a7.5 7.5 0 1 0 -15 0zM934.68 604.42 a7.5 7.5 0 1 0 15 0 a7.5 7.5 0 1 0 -15 0zM869.73 641.92 a7.5 7.5 0 1 0 15 0 a7.5 7.5 0 1 0 -15 0zM804.77 604.42 a7.5 7.5 0 1 0 15 0 a7.5 7.5 0 1 0 -15 0zM804.77 529.42 a7.5 7.5 0 1 0 15 0 a7.5 7.5 0 1 0 -15 0zM999.64 41.92 a7.5 7.5 0 1 0 15 0 a7.5 7.5 0 1 0 -15 0zM1064.59 79.42 a7.5 7.5 0 1 0 15 0 a7.5 7.5 0 1 0 -15 0zM1064.59 154.42 a7.5 7.5 0 1 0 15 0 a7.5 7.5 0 1 0 -15 0zM999.64 191.92 a7.5 7.5 0 1 0 15 0 a7.5 7.5 0 1 0 -15 0zM999.64 266.92 a7.5 7.5 0 1 0 15 0 a7.5 7.5 0 1 0 -15 0zM1064.59 304.42 a7.5 7.5 0 1 0 15 0 a7.5 7.5 0 1 0 -15 0zM1064.59 379.42 a7.5 7.5 0 1 0 15 0 a7.5 7.5 0 1 0 -15 0zM999.64 416.92 a7.5 7.5 0 1 0 15 0 a7.5 7.5 0 1 0 -15 0zM934.68 379.42 a7.5 7.5 0 1 0 15 0 a7.5 7.5 0 1 0 -15 0zM934.68 304.42 a7.5 7.5 0 1 0 15 0 a7.5 7.5 0 1 0 -15 0zM1129.54 191.92 a7.5 7.5 0 1 0 15 0 a7.5 7.5 0 1 0 -15 0zM1129.54 266.92 a7.5 7.5 0 1 0 15 0 a7.5 7.5 0 1 0 -15 0zM1194.5 304.42 a7.5 7.5 0 1 0 15 0 a7.5 7.5 0 1 0 -15 0zM1194.5 379.42 a7.5 7.5 0 1 0 15 0 a7.5 7.5 0 1 0 -15 0zM1129.54 416.92 a7.5 7.5 0 1 0 15 0 a7.5 7.5 0 1 0 -15 0zM1259.45 491.92 a7.5 7.5 0 1 0 15 0 a7.5 7.5 0 1 0 -15 0zM1324.4 529.42 a7.5 7.5 0 1 0 15 0 a7.5 7.5 0 1 0 -15 0zM1324.4 604.42 a7.5 7.5 0 1 0 15 0 a7.5 7.5 0 1 0 -15 0zM1259.45 641.92 a7.5 7.5 0 1 0 15 0 a7.5 7.5 0 1 0 -15 0zM1194.5 604.42 a7.5 7.5 0 1 0 15 0 a7.5 7.5 0 1 0 -15 0zM1194.5 529.42 a7.5 7.5 0 1 0 15 0 a7.5 7.5 0 1 0 -15 0zM1324.4 -70.58 a7.5 7.5 0 1 0 15 0 a7.5 7.5 0 1 0 -15 0zM1389.36 -33.08 a7.5 7.5 0 1 0 15 0 a7.5 7.5 0 1 0 -15 0zM1389.36 41.92 a7.5 7.5 0 1 0 15 0 a7.5 7.5 0 1 0 -15 0zM1324.4 79.42 a7.5 7.5 0 1 0 15 0 a7.5 7.5 0 1 0 -15 0zM1259.45 41.92 a7.5 7.5 0 1 0 15 0 a7.5 7.5 0 1 0 -15 0zM1259.45 -33.08 a7.5 7.5 0 1 0 15 0 a7.5 7.5 0 1 0 -15 0zM1324.4 379.42 a7.5 7.5 0 1 0 15 0 a7.5 7.5 0 1 0 -15 0zM1389.36 416.92 a7.5 7.5 0 1 0 15 0 a7.5 7.5 0 1 0 -15 0zM1389.36 491.92 a7.5 7.5 0 1 0 15 0 a7.5 7.5 0 1 0 -15 0zM1259.45 416.92 a7.5 7.5 0 1 0 15 0 a7.5 7.5 0 1 0 -15 0zM1454.31 -70.58 a7.5 7.5 0 1 0 15 0 a7.5 7.5 0 1 0 -15 0zM1519.27 -33.08 a7.5 7.5 0 1 0 15 0 a7.5 7.5 0 1 0 -15 0zM1519.27 41.92 a7.5 7.5 0 1 0 15 0 a7.5 7.5 0 1 0 -15 0zM1454.31 79.42 a7.5 7.5 0 1 0 15 0 a7.5 7.5 0 1 0 -15 0zM1454.31 154.42 a7.5 7.5 0 1 0 15 0 a7.5 7.5 0 1 0 -15 0zM1519.27 191.92 a7.5 7.5 0 1 0 15 0 a7.5 7.5 0 1 0 -15 0zM1519.27 266.92 a7.5 7.5 0 1 0 15 0 a7.5 7.5 0 1 0 -15 0zM1454.31 304.42 a7.5 7.5 0 1 0 15 0 a7.5 7.5 0 1 0 -15 0zM1389.36 266.92 a7.5 7.5 0 1 0 15 0 a7.5 7.5 0 1 0 -15 0zM1389.36 191.92 a7.5 7.5 0 1 0 15 0 a7.5 7.5 0 1 0 -15 0zM1584.22 304.42 a7.5 7.5 0 1 0 15 0 a7.5 7.5 0 1 0 -15 0zM1584.22 379.42 a7.5 7.5 0 1 0 15 0 a7.5 7.5 0 1 0 -15 0zM1519.27 416.92 a7.5 7.5 0 1 0 15 0 a7.5 7.5 0 1 0 -15 0zM1454.31 379.42 a7.5 7.5 0 1 0 15 0 a7.5 7.5 0 1 0 -15 0z" fill="rgba(214, 255, 221, 1)"></path></g><defs><mask id="SvgjsMask1003"><rect width="1440" height="560" fill="#ffffff"></rect></mask></defs></svg>