<svg xmlns="http://www.w3.org/2000/svg" version="1.1" xmlns:xlink="http://www.w3.org/1999/xlink" xmlns:svgjs="http://svgjs.com/svgjs" width="1440" height="560" preserveAspectRatio="none" viewBox="0 0 1440 560"><g mask="url(&quot;#SvgjsMask1004&quot;)" fill="none"><path d="M74.69 164.46L139.64 201.96L139.64 276.96L74.69 314.46L9.74 276.96L9.74 201.96zM139.64 501.96L204.6 539.46L204.6 614.46L139.64 651.96L74.69 614.46L74.69 539.46zM204.6 -60.54L269.55 -23.04L269.55 51.96L204.6 89.46L139.64 51.96L139.64 -23.04zM269.55 276.96L334.5 314.46L334.5 389.46L269.55 426.96L204.6 389.46L204.6 314.46zM269.55 501.96L334.5 539.46L334.5 614.46L269.55 651.96L204.6 614.46L204.6 539.46zM399.46 51.96L464.41 89.46L464.41 164.46L399.46 201.96L334.5 164.46L334.5 89.46zM334.5 164.46L399.46 201.96L399.46 276.96L334.5 314.46L269.55 276.96L269.55 201.96zM334.5 389.46L399.46 426.96L399.46 501.96L334.5 539.46L269.55 501.96L269.55 426.96zM529.37 51.96L594.32 89.46L594.32 164.46L529.37 201.96L464.41 164.46L464.41 89.46zM529.37 501.96L594.32 539.46L594.32 614.46L529.37 651.96L464.41 614.46L464.41 539.46zM594.32 389.46L659.27 426.96L659.27 501.96L594.32 539.46L529.37 501.96L529.37 426.96zM724.23 -60.54L789.18 -23.04L789.18 51.96L724.23 89.46L659.27 51.96L659.27 -23.04zM724.23 164.46L789.18 201.96L789.18 276.96L724.23 314.46L659.27 276.96L659.27 201.96zM854.13 -60.54L919.09 -23.04L919.09 51.96L854.13 89.46L789.18 51.96L789.18 -23.04zM919.09 51.96L984.04 89.46L984.04 164.46L919.09 201.96L854.13 164.46L854.13 89.46zM854.13 164.46L919.09 201.96L919.09 276.96L854.13 314.46L789.18 276.96L789.18 201.96zM919.09 276.96L984.04 314.46L984.04 389.46L919.09 426.96L854.13 389.46L854.13 314.46zM854.13 389.46L919.09 426.96L919.09 501.96L854.13 539.46L789.18 501.96L789.18 426.96zM919.09 501.96L984.04 539.46L984.04 614.46L919.09 651.96L854.13 614.46L854.13 539.46zM984.04 -60.54L1049 -23.04L1049 51.96L984.04 89.46L919.09 51.96L919.09 -23.04zM984.04 164.46L1049 201.96L1049 276.96L984.04 314.46L919.09 276.96L919.09 201.96zM1049 276.96L1113.95 314.46L1113.95 389.46L1049 426.96L984.04 389.46L984.04 314.46zM984.04 389.46L1049 426.96L1049 501.96L984.04 539.46L919.09 501.96L919.09 426.96zM1049 501.96L1113.95 539.46L1113.95 614.46L1049 651.96L984.04 614.46L984.04 539.46zM1178.9 51.96L1243.86 89.46L1243.86 164.46L1178.9 201.96L1113.95 164.46L1113.95 89.46zM1178.9 276.96L1243.86 314.46L1243.86 389.46L1178.9 426.96L1113.95 389.46L1113.95 314.46zM1113.95 389.46L1178.9 426.96L1178.9 501.96L1113.95 539.46L1049 501.96L1049 426.96zM1308.81 276.96L1373.76 314.46L1373.76 389.46L1308.81 426.96L1243.86 389.46L1243.86 314.46zM1308.81 501.96L1373.76 539.46L1373.76 614.46L1308.81 651.96L1243.86 614.46L1243.86 539.46zM1373.77 -60.54L1438.72 -23.04L1438.72 51.96L1373.77 89.46L1308.81 51.96L1308.81 -23.04zM1438.72 276.96L1503.67 314.46L1503.67 389.46L1438.72 426.96L1373.77 389.46L1373.77 314.46zM1438.72 501.96L1503.67 539.46L1503.67 614.46L1438.72 651.96L1373.77 614.46L1373.77 539.46zM1503.67 164.46L1568.63 201.96L1568.63 276.96L1503.67 314.46L1438.72 276.96L1438.72 201.96zM1568.63 276.96L1633.58 314.46L1633.58 389.46L1568.63 426.96L1503.67 389.46L1503.67 314.46zM1503.67 389.46L1568.63 426.96L1568.63 501.96L1503.67 539.46L1438.72 501.96L1438.72 426.96z" stroke="rgba(231, 255, 239, 1)" stroke-width="2"></path><path d="M67.19 164.46 a7.5 7.5 0 1 0 15 0 a7.5 7.5 0 1 0 -15 0zM132.14 201.96 a7.5 7.5 0 1 0 15 0 a7.5 7.5 0 1 0 -15 0zM132.14 276.96 a7.5 7.5 0 1 0 15 0 a7.5 7.5 0 1 0 -15 0zM67.19 314.46 a7.5 7.5 0 1 0 15 0 a7.5 7.5 0 1 0 -15 0zM2.24 276.96 a7.5 7.5 0 1 0 15 0 a7.5 7.5 0 1 0 -15 0zM2.24 201.96 a7.5 7.5 0 1 0 15 0 a7.5 7.5 0 1 0 -15 0zM132.14 501.96 a7.5 7.5 0 1 0 15 0 a7.5 7.5 0 1 0 -15 0zM197.1 539.46 a7.5 7.5 0 1 0 15 0 a7.5 7.5 0 1 0 -15 0zM197.1 614.46 a7.5 7.5 0 1 0 15 0 a7.5 7.5 0 1 0 -15 0zM132.14 651.96 a7.5 7.5 0 1 0 15 0 a7.5 7.5 0 1 0 -15 0zM67.19 614.46 a7.5 7.5 0 1 0 15 0 a7.5 7.5 0 1 0 -15 0zM67.19 539.46 a7.5 7.5 0 1 0 15 0 a7.5 7.5 0 1 0 -15 0zM197.1 -60.54 a7.5 7.5 0 1 0 15 0 a7.5 7.5 0 1 0 -15 0zM262.05 -23.04 a7.5 7.5 0 1 0 15 0 a7.5 7.5 0 1 0 -15 0zM262.05 51.96 a7.5 7.5 0 1 0 15 0 a7.5 7.5 0 1 0 -15 0zM197.1 89.46 a7.5 7.5 0 1 0 15 0 a7.5 7.5 0 1 0 -15 0zM132.14 51.96 a7.5 7.5 0 1 0 15 0 a7.5 7.5 0 1 0 -15 0zM132.14 -23.04 a7.5 7.5 0 1 0 15 0 a7.5 7.5 0 1 0 -15 0zM262.05 276.96 a7.5 7.5 0 1 0 15 0 a7.5 7.5 0 1 0 -15 0zM327 314.46 a7.5 7.5 0 1 0 15 0 a7.5 7.5 0 1 0 -15 0zM327 389.46 a7.5 7.5 0 1 0 15 0 a7.5 7.5 0 1 0 -15 0zM262.05 426.96 a7.5 7.5 0 1 0 15 0 a7.5 7.5 0 1 0 -15 0zM197.1 389.46 a7.5 7.5 0 1 0 15 0 a7.5 7.5 0 1 0 -15 0zM197.1 314.46 a7.5 7.5 0 1 0 15 0 a7.5 7.5 0 1 0 -15 0zM262.05 501.96 a7.5 7.5 0 1 0 15 0 a7.5 7.5 0 1 0 -15 0zM327 539.46 a7.5 7.5 0 1 0 15 0 a7.5 7.5 0 1 0 -15 0zM327 614.46 a7.5 7.5 0 1 0 15 0 a7.5 7.5 0 1 0 -15 0zM262.05 651.96 a7.5 7.5 0 1 0 15 0 a7.5 7.5 0 1 0 -15 0zM391.96 51.96 a7.5 7.5 0 1 0 15 0 a7.5 7.5 0 1 0 -15 0zM456.91 89.46 a7.5 7.5 0 1 0 15 0 a7.5 7.5 0 1 0 -15 0zM456.91 164.46 a7.5 7.5 0 1 0 15 0 a7.5 7.5 0 1 0 -15 0zM391.96 201.96 a7.5 7.5 0 1 0 15 0 a7.5 7.5 0 1 0 -15 0zM327 164.46 a7.5 7.5 0 1 0 15 0 a7.5 7.5 0 1 0 -15 0zM327 89.46 a7.5 7.5 0 1 0 15 0 a7.5 7.5 0 1 0 -15 0zM391.96 276.96 a7.5 7.5 0 1 0 15 0 a7.5 7.5 0 1 0 -15 0zM262.05 201.96 a7.5 7.5 0 1 0 15 0 a7.5 7.5 0 1 0 -15 0zM391.96 426.96 a7.5 7.5 0 1 0 15 0 a7.5 7.5 0 1 0 -15 0zM391.96 501.96 a7.5 7.5 0 1 0 15 0 a7.5 7.5 0 1 0 -15 0zM521.87 51.96 a7.5 7.5 0 1 0 15 0 a7.5 7.5 0 1 0 -15 0zM586.82 89.46 a7.5 7.5 0 1 0 15 0 a7.5 7.5 0 1 0 -15 0zM586.82 164.46 a7.5 7.5 0 1 0 15 0 a7.5 7.5 0 1 0 -15 0zM521.87 201.96 a7.5 7.5 0 1 0 15 0 a7.5 7.5 0 1 0 -15 0zM521.87 501.96 a7.5 7.5 0 1 0 15 0 a7.5 7.5 0 1 0 -15 0zM586.82 539.46 a7.5 7.5 0 1 0 15 0 a7.5 7.5 0 1 0 -15 0zM586.82 614.46 a7.5 7.5 0 1 0 15 0 a7.5 7.5 0 1 0 -15 0zM521.87 651.96 a7.5 7.5 0 1 0 15 0 a7.5 7.5 0 1 0 -15 0zM456.91 614.46 a7.5 7.5 0 1 0 15 0 a7.5 7.5 0 1 0 -15 0zM456.91 539.46 a7.5 7.5 0 1 0 15 0 a7.5 7.5 0 1 0 -15 0zM586.82 389.46 a7.5 7.5 0 1 0 15 0 a7.5 7.5 0 1 0 -15 0zM651.77 426.96 a7.5 7.5 0 1 0 15 0 a7.5 7.5 0 1 0 -15 0zM651.77 501.96 a7.5 7.5 0 1 0 15 0 a7.5 7.5 0 1 0 -15 0zM521.87 426.96 a7.5 7.5 0 1 0 15 0 a7.5 7.5 0 1 0 -15 0zM716.73 -60.54 a7.5 7.5 0 1 0 15 0 a7.5 7.5 0 1 0 -15 0zM781.68 -23.04 a7.5 7.5 0 1 0 15 0 a7.5 7.5 0 1 0 -15 0zM781.68 51.96 a7.5 7.5 0 1 0 15 0 a7.5 7.5 0 1 0 -15 0zM716.73 89.46 a7.5 7.5 0 1 0 15 0 a7.5 7.5 0 1 0 -15 0zM651.77 51.96 a7.5 7.5 0 1 0 15 0 a7.5 7.5 0 1 0 -15 0zM651.77 -23.04 a7.5 7.5 0 1 0 15 0 a7.5 7.5 0 1 0 -15 0zM716.73 164.46 a7.5 7.5 0 1 0 15 0 a7.5 7.5 0 1 0 -15 0zM781.68 201.96 a7.5 7.5 0 1 0 15 0 a7.5 7.5 0 1 0 -15 0zM781.68 276.96 a7.5 7.5 0 1 0 15 0 a7.5 7.5 0 1 0 -15 0zM716.73 314.46 a7.5 7.5 0 1 0 15 0 a7.5 7.5 0 1 0 -15 0zM651.77 276.96 a7.5 7.5 0 1 0 15 0 a7.5 7.5 0 1 0 -15 0zM651.77 201.96 a7.5 7.5 0 1 0 15 0 a7.5 7.5 0 1 0 -15 0zM846.63 -60.54 a7.5 7.5 0 1 0 15 0 a7.5 7.5 0 1 0 -15 0zM911.59 -23.04 a7.5 7.5 0 1 0 15 0 a7.5 7.5 0 1 0 -15 0zM911.59 51.96 a7.5 7.5 0 1 0 15 0 a7.5 7.5 0 1 0 -15 0zM846.63 89.46 a7.5 7.5 0 1 0 15 0 a7.5 7.5 0 1 0 -15 0zM976.54 89.46 a7.5 7.5 0 1 0 15 0 a7.5 7.5 0 1 0 -15 0zM976.54 164.46 a7.5 7.5 0 1 0 15 0 a7.5 7.5 0 1 0 -15 0zM911.59 201.96 a7.5 7.5 0 1 0 15 0 a7.5 7.5 0 1 0 -15 0zM846.63 164.46 a7.5 7.5 0 1 0 15 0 a7.5 7.5 0 1 0 -15 0zM911.59 276.96 a7.5 7.5 0 1 0 15 0 a7.5 7.5 0 1 0 -15 0zM846.63 314.46 a7.5 7.5 0 1 0 15 0 a7.5 7.5 0 1 0 -15 0zM976.54 314.46 a7.5 7.5 0 1 0 15 0 a7.5 7.5 0 1 0 -15 0zM976.54 389.46 a7.5 7.5 0 1 0 15 0 a7.5 7.5 0 1 0 -15 0zM911.59 426.96 a7.5 7.5 0 1 0 15 0 a7.5 7.5 0 1 0 -15 0zM846.63 389.46 a7.5 7.5 0 1 0 15 0 a7.5 7.5 0 1 0 -15 0zM911.59 501.96 a7.5 7.5 0 1 0 15 0 a7.5 7.5 0 1 0 -15 0zM846.63 539.46 a7.5 7.5 0 1 0 15 0 a7.5 7.5 0 1 0 -15 0zM781.68 501.96 a7.5 7.5 0 1 0 15 0 a7.5 7.5 0 1 0 -15 0zM781.68 426.96 a7.5 7.5 0 1 0 15 0 a7.5 7.5 0 1 0 -15 0zM976.54 539.46 a7.5 7.5 0 1 0 15 0 a7.5 7.5 0 1 0 -15 0zM976.54 614.46 a7.5 7.5 0 1 0 15 0 a7.5 7.5 0 1 0 -15 0zM911.59 651.96 a7.5 7.5 0 1 0 15 0 a7.5 7.5 0 1 0 -15 0zM846.63 614.46 a7.5 7.5 0 1 0 15 0 a7.5 7.5 0 1 0 -15 0zM976.54 -60.54 a7.5 7.5 0 1 0 15 0 a7.5 7.5 0 1 0 -15 0zM1041.5 -23.04 a7.5 7.5 0 1 0 15 0 a7.5 7.5 0 1 0 -15 0zM1041.5 51.96 a7.5 7.5 0 1 0 15 0 a7.5 7.5 0 1 0 -15 0zM1041.5 201.96 a7.5 7.5 0 1 0 15 0 a7.5 7.5 0 1 0 -15 0zM1041.5 276.96 a7.5 7.5 0 1 0 15 0 a7.5 7.5 0 1 0 -15 0zM1106.45 314.46 a7.5 7.5 0 1 0 15 0 a7.5 7.5 0 1 0 -15 0zM1106.45 389.46 a7.5 7.5 0 1 0 15 0 a7.5 7.5 0 1 0 -15 0zM1041.5 426.96 a7.5 7.5 0 1 0 15 0 a7.5 7.5 0 1 0 -15 0zM1041.5 501.96 a7.5 7.5 0 1 0 15 0 a7.5 7.5 0 1 0 -15 0zM1106.45 539.46 a7.5 7.5 0 1 0 15 0 a7.5 7.5 0 1 0 -15 0zM1106.45 614.46 a7.5 7.5 0 1 0 15 0 a7.5 7.5 0 1 0 -15 0zM1041.5 651.96 a7.5 7.5 0 1 0 15 0 a7.5 7.5 0 1 0 -15 0zM1171.4 51.96 a7.5 7.5 0 1 0 15 0 a7.5 7.5 0 1 0 -15 0zM1236.36 89.46 a7.5 7.5 0 1 0 15 0 a7.5 7.5 0 1 0 -15 0zM1236.36 164.46 a7.5 7.5 0 1 0 15 0 a7.5 7.5 0 1 0 -15 0zM1171.4 201.96 a7.5 7.5 0 1 0 15 0 a7.5 7.5 0 1 0 -15 0zM1106.45 164.46 a7.5 7.5 0 1 0 15 0 a7.5 7.5 0 1 0 -15 0zM1106.45 89.46 a7.5 7.5 0 1 0 15 0 a7.5 7.5 0 1 0 -15 0zM1171.4 276.96 a7.5 7.5 0 1 0 15 0 a7.5 7.5 0 1 0 -15 0zM1236.36 314.46 a7.5 7.5 0 1 0 15 0 a7.5 7.5 0 1 0 -15 0zM1236.36 389.46 a7.5 7.5 0 1 0 15 0 a7.5 7.5 0 1 0 -15 0zM1171.4 426.96 a7.5 7.5 0 1 0 15 0 a7.5 7.5 0 1 0 -15 0zM1171.4 501.96 a7.5 7.5 0 1 0 15 0 a7.5 7.5 0 1 0 -15 0zM1301.31 276.96 a7.5 7.5 0 1 0 15 0 a7.5 7.5 0 1 0 -15 0zM1366.26 314.46 a7.5 7.5 0 1 0 15 0 a7.5 7.5 0 1 0 -15 0zM1366.26 389.46 a7.5 7.5 0 1 0 15 0 a7.5 7.5 0 1 0 -15 0zM1301.31 426.96 a7.5 7.5 0 1 0 15 0 a7.5 7.5 0 1 0 -15 0zM1301.31 501.96 a7.5 7.5 0 1 0 15 0 a7.5 7.5 0 1 0 -15 0zM1366.26 539.46 a7.5 7.5 0 1 0 15 0 a7.5 7.5 0 1 0 -15 0zM1366.26 614.46 a7.5 7.5 0 1 0 15 0 a7.5 7.5 0 1 0 -15 0zM1301.31 651.96 a7.5 7.5 0 1 0 15 0 a7.5 7.5 0 1 0 -15 0zM1236.36 614.46 a7.5 7.5 0 1 0 15 0 a7.5 7.5 0 1 0 -15 0zM1236.36 539.46 a7.5 7.5 0 1 0 15 0 a7.5 7.5 0 1 0 -15 0zM1366.27 -60.54 a7.5 7.5 0 1 0 15 0 a7.5 7.5 0 1 0 -15 0zM1431.22 -23.04 a7.5 7.5 0 1 0 15 0 a7.5 7.5 0 1 0 -15 0zM1431.22 51.96 a7.5 7.5 0 1 0 15 0 a7.5 7.5 0 1 0 -15 0zM1366.27 89.46 a7.5 7.5 0 1 0 15 0 a7.5 7.5 0 1 0 -15 0zM1301.31 51.96 a7.5 7.5 0 1 0 15 0 a7.5 7.5 0 1 0 -15 0zM1301.31 -23.04 a7.5 7.5 0 1 0 15 0 a7.5 7.5 0 1 0 -15 0zM1431.22 276.96 a7.5 7.5 0 1 0 15 0 a7.5 7.5 0 1 0 -15 0zM1496.17 314.46 a7.5 7.5 0 1 0 15 0 a7.5 7.5 0 1 0 -15 0zM1496.17 389.46 a7.5 7.5 0 1 0 15 0 a7.5 7.5 0 1 0 -15 0zM1431.22 426.96 a7.5 7.5 0 1 0 15 0 a7.5 7.5 0 1 0 -15 0zM1366.27 389.46 a7.5 7.5 0 1 0 15 0 a7.5 7.5 0 1 0 -15 0zM1366.27 314.46 a7.5 7.5 0 1 0 15 0 a7.5 7.5 0 1 0 -15 0zM1431.22 501.96 a7.5 7.5 0 1 0 15 0 a7.5 7.5 0 1 0 -15 0zM1496.17 539.46 a7.5 7.5 0 1 0 15 0 a7.5 7.5 0 1 0 -15 0zM1496.17 614.46 a7.5 7.5 0 1 0 15 0 a7.5 7.5 0 1 0 -15 0zM1431.22 651.96 a7.5 7.5 0 1 0 15 0 a7.5 7.5 0 1 0 -15 0zM1366.27 614.46 a7.5 7.5 0 1 0 15 0 a7.5 7.5 0 1 0 -15 0zM1366.27 539.46 a7.5 7.5 0 1 0 15 0 a7.5 7.5 0 1 0 -15 0zM1496.17 164.46 a7.5 7.5 0 1 0 15 0 a7.5 7.5 0 1 0 -15 0zM1561.13 201.96 a7.5 7.5 0 1 0 15 0 a7.5 7.5 0 1 0 -15 0zM1561.13 276.96 a7.5 7.5 0 1 0 15 0 a7.5 7.5 0 1 0 -15 0zM1431.22 201.96 a7.5 7.5 0 1 0 15 0 a7.5 7.5 0 1 0 -15 0zM1626.08 314.46 a7.5 7.5 0 1 0 15 0 a7.5 7.5 0 1 0 -15 0zM1626.08 389.46 a7.5 7.5 0 1 0 15 0 a7.5 7.5 0 1 0 -15 0zM1561.13 426.96 a7.5 7.5 0 1 0 15 0 a7.5 7.5 0 1 0 -15 0zM1561.13 501.96 a7.5 7.5 0 1 0 15 0 a7.5 7.5 0 1 0 -15 0z" fill="rgba(231, 255, 239, 1)"></path><path d="M4.24 118.39L47.54 143.39L47.54 193.39L4.24 218.39L-39.06 193.39L-39.06 143.39zM4.24 418.39L47.54 443.39L47.54 493.39L4.24 518.39L-39.06 493.39L-39.06 443.39zM47.54 493.39L90.84 518.39L90.84 568.39L47.54 593.39L4.24 568.39L4.24 518.39zM90.84 -31.61L134.15 -6.61L134.15 43.39L90.84 68.39L47.54 43.39L47.54 -6.61zM307.36 43.39L350.66 68.39L350.66 118.39L307.36 143.39L264.06 118.39L264.06 68.39zM393.96 43.39L437.27 68.39L437.27 118.39L393.96 143.39L350.66 118.39L350.66 68.39zM393.96 343.39L437.27 368.39L437.27 418.39L393.96 443.39L350.66 418.39L350.66 368.39zM437.27 118.39L480.57 143.39L480.57 193.39L437.27 218.39L393.96 193.39L393.96 143.39zM437.27 418.39L480.57 443.39L480.57 493.39L437.27 518.39L393.96 493.39L393.96 443.39zM523.87 -31.61L567.17 -6.61L567.17 43.39L523.87 68.39L480.57 43.39L480.57 -6.61zM567.17 193.39L610.48 218.39L610.48 268.39L567.17 293.39L523.87 268.39L523.87 218.39zM523.87 268.39L567.17 293.39L567.17 343.39L523.87 368.39L480.57 343.39L480.57 293.39zM653.78 193.39L697.08 218.39L697.08 268.39L653.78 293.39L610.48 268.39L610.48 218.39zM653.78 493.39L697.08 518.39L697.08 568.39L653.78 593.39L610.48 568.39L610.48 518.39zM740.38 493.39L783.69 518.39L783.69 568.39L740.38 593.39L697.08 568.39L697.08 518.39zM826.99 193.39L870.29 218.39L870.29 268.39L826.99 293.39L783.69 268.39L783.69 218.39zM783.69 268.39L826.99 293.39L826.99 343.39L783.69 368.39L740.38 343.39L740.38 293.39zM826.99 343.39L870.29 368.39L870.29 418.39L826.99 443.39L783.69 418.39L783.69 368.39zM826.99 493.39L870.29 518.39L870.29 568.39L826.99 593.39L783.69 568.39L783.69 518.39zM913.59 343.39L956.9 368.39L956.9 418.39L913.59 443.39L870.29 418.39L870.29 368.39zM956.9 268.39L1000.2 293.39L1000.2 343.39L956.9 368.39L913.59 343.39L913.59 293.39zM1000.2 493.39L1043.5 518.39L1043.5 568.39L1000.2 593.39L956.9 568.39L956.9 518.39zM1043.5 -31.61L1086.8 -6.61L1086.8 43.39L1043.5 68.39L1000.2 43.39L1000.2 -6.61zM1086.8 43.39L1130.11 68.39L1130.11 118.39L1086.8 143.39L1043.5 118.39L1043.5 68.39zM1173.41 343.39L1216.71 368.39L1216.71 418.39L1173.41 443.39L1130.11 418.39L1130.11 368.39zM1173.41 493.39L1216.71 518.39L1216.71 568.39L1173.41 593.39L1130.11 568.39L1130.11 518.39zM1216.71 118.39L1260.01 143.39L1260.01 193.39L1216.71 218.39L1173.41 193.39L1173.41 143.39zM1433.22 43.39L1476.53 68.39L1476.53 118.39L1433.22 143.39L1389.92 118.39L1389.92 68.39zM1389.92 418.39L1433.22 443.39L1433.22 493.39L1389.92 518.39L1346.62 493.39L1346.62 443.39z" stroke="rgba(231, 255, 239, 1)" stroke-width="2"></path></g><defs><mask id="SvgjsMask1004"><rect width="1440" height="560" fill="#ffffff"></rect></mask></defs></svg>