<svg xmlns="http://www.w3.org/2000/svg" version="1.1" xmlns:xlink="http://www.w3.org/1999/xlink" xmlns:svgjs="http://svgjs.com/svgjs" width="1440" height="560" preserveAspectRatio="none" viewBox="0 0 1440 560"><g mask="url(&quot;#SvgjsMask1000&quot;)" fill="none"><path d="M-62.19 365.33L-62.19 365.33" stroke="#132e65" stroke-width="1.5"></path><path d="M-62.19 365.33L83.77 352.48" stroke="#132e65" stroke-width="1.5"></path><path d="M-62.19 365.33L-58 560.58" stroke="#132e65" stroke-width="1.5"></path><path d="M-62.19 365.33L100.4 526.49" stroke="#132e65" stroke-width="1.5"></path><path d="M-62.19 365.33L58.3 639.69" stroke="#132e65" stroke-width="1.5"></path><path d="M-62.19 365.33L239.36 338.67" stroke="#132e65" stroke-width="1.5"></path><path d="M-58 560.58L-58 560.58" stroke="#132e65" stroke-width="1.5"></path><path d="M-58 560.58L-39.43 683.75" stroke="#132e65" stroke-width="1.5"></path><path d="M-58 560.58L58.3 639.69" stroke="#132e65" stroke-width="1.5"></path><path d="M-58 560.58L100.4 526.49" stroke="#132e65" stroke-width="1.5"></path><path d="M-39.43 683.75L-39.43 683.75" stroke="#132e65" stroke-width="1.5"></path><path d="M-39.43 683.75L58.3 639.69" stroke="#132e65" stroke-width="1.5"></path><path d="M83.77 352.48L83.77 352.48" stroke="#132e65" stroke-width="1.5"></path><path d="M83.77 352.48L239.36 338.67" stroke="#132e65" stroke-width="1.5"></path><path d="M83.77 352.48L100.4 526.49" stroke="#132e65" stroke-width="1.5"></path><path d="M83.77 352.48L200.59 526.09" stroke="#132e65" stroke-width="1.5"></path><path d="M83.77 352.48L-58 560.58" stroke="#132e65" stroke-width="1.5"></path><path d="M83.77 352.48L363.61 337.81" stroke="#132e65" stroke-width="1.5"></path><path d="M100.4 526.49L100.4 526.49" stroke="#132e65" stroke-width="1.5"></path><path d="M100.4 526.49L200.59 526.09" stroke="#132e65" stroke-width="1.5"></path><path d="M100.4 526.49L58.3 639.69" stroke="#132e65" stroke-width="1.5"></path><path d="M100.4 526.49L228.62 663.15" stroke="#132e65" stroke-width="1.5"></path><path d="M100.4 526.49L-39.43 683.75" stroke="#132e65" stroke-width="1.5"></path><path d="M58.3 639.69L58.3 639.69" stroke="#132e65" stroke-width="1.5"></path><path d="M58.3 639.69L228.62 663.15" stroke="#132e65" stroke-width="1.5"></path><path d="M58.3 639.69L200.59 526.09" stroke="#132e65" stroke-width="1.5"></path><path d="M58.3 639.69L83.77 352.48" stroke="#132e65" stroke-width="1.5"></path><path d="M239.36 338.67L239.36 338.67" stroke="#132e65" stroke-width="1.5"></path><path d="M239.36 338.67L363.61 337.81" stroke="#132e65" stroke-width="1.5"></path><path d="M239.36 338.67L200.59 526.09" stroke="#132e65" stroke-width="1.5"></path><path d="M239.36 338.67L100.4 526.49" stroke="#132e65" stroke-width="1.5"></path><path d="M239.36 338.67L380.16 561" stroke="#132e65" stroke-width="1.5"></path><path d="M200.59 526.09L200.59 526.09" stroke="#132e65" stroke-width="1.5"></path><path d="M200.59 526.09L228.62 663.15" stroke="#132e65" stroke-width="1.5"></path><path d="M228.62 663.15L228.62 663.15" stroke="#132e65" stroke-width="1.5"></path><path d="M228.62 663.15L358.27 649.79" stroke="#132e65" stroke-width="1.5"></path><path d="M228.62 663.15L380.16 561" stroke="#132e65" stroke-width="1.5"></path><path d="M228.62 663.15L-39.43 683.75" stroke="#132e65" stroke-width="1.5"></path><path d="M363.61 337.81L363.61 337.81" stroke="#132e65" stroke-width="1.5"></path><path d="M363.61 337.81L514.98 355.38" stroke="#132e65" stroke-width="1.5"></path><path d="M363.61 337.81L507.6 493.17" stroke="#132e65" stroke-width="1.5"></path><path d="M363.61 337.81L380.16 561" stroke="#132e65" stroke-width="1.5"></path><path d="M380.16 561L380.16 561" stroke="#132e65" stroke-width="1.5"></path><path d="M380.16 561L358.27 649.79" stroke="#132e65" stroke-width="1.5"></path><path d="M380.16 561L507.6 493.17" stroke="#132e65" stroke-width="1.5"></path><path d="M380.16 561L528.99 653.42" stroke="#132e65" stroke-width="1.5"></path><path d="M380.16 561L200.59 526.09" stroke="#132e65" stroke-width="1.5"></path><path d="M358.27 649.79L358.27 649.79" stroke="#132e65" stroke-width="1.5"></path><path d="M358.27 649.79L528.99 653.42" stroke="#132e65" stroke-width="1.5"></path><path d="M358.27 649.79L200.59 526.09" stroke="#132e65" stroke-width="1.5"></path><path d="M514.98 355.38L514.98 355.38" stroke="#132e65" stroke-width="1.5"></path><path d="M514.98 355.38L507.6 493.17" stroke="#132e65" stroke-width="1.5"></path><path d="M514.98 355.38L700.99 370.35" stroke="#132e65" stroke-width="1.5"></path><path d="M514.98 355.38L661.88 233.93" stroke="#132e65" stroke-width="1.5"></path><path d="M514.98 355.38L380.16 561" stroke="#132e65" stroke-width="1.5"></path><path d="M507.6 493.17L507.6 493.17" stroke="#132e65" stroke-width="1.5"></path><path d="M507.6 493.17L528.99 653.42" stroke="#132e65" stroke-width="1.5"></path><path d="M528.99 653.42L528.99 653.42" stroke="#132e65" stroke-width="1.5"></path><path d="M528.99 653.42L679.77 642.9" stroke="#132e65" stroke-width="1.5"></path><path d="M528.99 653.42L672.41 550.62" stroke="#132e65" stroke-width="1.5"></path><path d="M528.99 653.42L514.98 355.38" stroke="#132e65" stroke-width="1.5"></path><path d="M661.88 233.93L661.88 233.93" stroke="#132e65" stroke-width="1.5"></path><path d="M661.88 233.93L700.99 370.35" stroke="#132e65" stroke-width="1.5"></path><path d="M661.88 233.93L856.88 224.77" stroke="#132e65" stroke-width="1.5"></path><path d="M661.88 233.93L852.41 108.74" stroke="#132e65" stroke-width="1.5"></path><path d="M661.88 233.93L839.07 385.01" stroke="#132e65" stroke-width="1.5"></path><path d="M661.88 233.93L951.68 203.35" stroke="#132e65" stroke-width="1.5"></path><path d="M700.99 370.35L700.99 370.35" stroke="#132e65" stroke-width="1.5"></path><path d="M700.99 370.35L839.07 385.01" stroke="#132e65" stroke-width="1.5"></path><path d="M672.41 550.62L672.41 550.62" stroke="#132e65" stroke-width="1.5"></path><path d="M672.41 550.62L679.77 642.9" stroke="#132e65" stroke-width="1.5"></path><path d="M672.41 550.62L809.58 530.55" stroke="#132e65" stroke-width="1.5"></path><path d="M679.77 642.9L679.77 642.9" stroke="#132e65" stroke-width="1.5"></path><path d="M679.77 642.9L830.21 674.67" stroke="#132e65" stroke-width="1.5"></path><path d="M679.77 642.9L809.58 530.55" stroke="#132e65" stroke-width="1.5"></path><path d="M679.77 642.9L507.6 493.17" stroke="#132e65" stroke-width="1.5"></path><path d="M852.41 108.74L852.41 108.74" stroke="#132e65" stroke-width="1.5"></path><path d="M852.41 108.74L856.88 224.77" stroke="#132e65" stroke-width="1.5"></path><path d="M852.41 108.74L971.45 55.04" stroke="#132e65" stroke-width="1.5"></path><path d="M856.88 224.77L856.88 224.77" stroke="#132e65" stroke-width="1.5"></path><path d="M856.88 224.77L951.68 203.35" stroke="#132e65" stroke-width="1.5"></path><path d="M856.88 224.77L839.07 385.01" stroke="#132e65" stroke-width="1.5"></path><path d="M856.88 224.77L965.71 368.11" stroke="#132e65" stroke-width="1.5"></path><path d="M839.07 385.01L839.07 385.01" stroke="#132e65" stroke-width="1.5"></path><path d="M839.07 385.01L965.71 368.11" stroke="#132e65" stroke-width="1.5"></path><path d="M839.07 385.01L809.58 530.55" stroke="#132e65" stroke-width="1.5"></path><path d="M809.58 530.55L809.58 530.55" stroke="#132e65" stroke-width="1.5"></path><path d="M809.58 530.55L830.21 674.67" stroke="#132e65" stroke-width="1.5"></path><path d="M830.21 674.67L830.21 674.67" stroke="#132e65" stroke-width="1.5"></path><path d="M830.21 674.67L944.13 678.3" stroke="#132e65" stroke-width="1.5"></path><path d="M830.21 674.67L672.41 550.62" stroke="#132e65" stroke-width="1.5"></path><path d="M966.03 -102.07L966.03 -102.07" stroke="#132e65" stroke-width="1.5"></path><path d="M966.03 -102.07L971.45 55.04" stroke="#132e65" stroke-width="1.5"></path><path d="M966.03 -102.07L1134.67 -102.84" stroke="#132e65" stroke-width="1.5"></path><path d="M966.03 -102.07L1150.15 40.4" stroke="#132e65" stroke-width="1.5"></path><path d="M971.45 55.04L971.45 55.04" stroke="#132e65" stroke-width="1.5"></path><path d="M971.45 55.04L951.68 203.35" stroke="#132e65" stroke-width="1.5"></path><path d="M971.45 55.04L1150.15 40.4" stroke="#132e65" stroke-width="1.5"></path><path d="M951.68 203.35L951.68 203.35" stroke="#132e65" stroke-width="1.5"></path><path d="M951.68 203.35L852.41 108.74" stroke="#132e65" stroke-width="1.5"></path><path d="M951.68 203.35L965.71 368.11" stroke="#132e65" stroke-width="1.5"></path><path d="M965.71 368.11L965.71 368.11" stroke="#132e65" stroke-width="1.5"></path><path d="M965.71 368.11L1151.18 385.84" stroke="#132e65" stroke-width="1.5"></path><path d="M965.71 368.11L809.58 530.55" stroke="#132e65" stroke-width="1.5"></path><path d="M965.71 368.11L1131.15 560.45" stroke="#132e65" stroke-width="1.5"></path><path d="M944.13 678.3L944.13 678.3" stroke="#132e65" stroke-width="1.5"></path><path d="M944.13 678.3L809.58 530.55" stroke="#132e65" stroke-width="1.5"></path><path d="M944.13 678.3L1154.51 659.59" stroke="#132e65" stroke-width="1.5"></path><path d="M944.13 678.3L1131.15 560.45" stroke="#132e65" stroke-width="1.5"></path><path d="M944.13 678.3L679.77 642.9" stroke="#132e65" stroke-width="1.5"></path><path d="M1134.67 -102.84L1134.67 -102.84" stroke="#132e65" stroke-width="1.5"></path><path d="M1134.67 -102.84L1248.59 -38.34" stroke="#132e65" stroke-width="1.5"></path><path d="M1134.67 -102.84L1150.15 40.4" stroke="#132e65" stroke-width="1.5"></path><path d="M1134.67 -102.84L971.45 55.04" stroke="#132e65" stroke-width="1.5"></path><path d="M1134.67 -102.84L1287.94 74.35" stroke="#132e65" stroke-width="1.5"></path><path d="M1134.67 -102.84L1455.48 -75.92" stroke="#132e65" stroke-width="1.5"></path><path d="M1150.15 40.4L1150.15 40.4" stroke="#132e65" stroke-width="1.5"></path><path d="M1150.15 40.4L1248.59 -38.34" stroke="#132e65" stroke-width="1.5"></path><path d="M1150.15 40.4L1287.94 74.35" stroke="#132e65" stroke-width="1.5"></path><path d="M1151.18 385.84L1151.18 385.84" stroke="#132e65" stroke-width="1.5"></path><path d="M1151.18 385.84L1250.29 387.98" stroke="#132e65" stroke-width="1.5"></path><path d="M1151.18 385.84L1131.15 560.45" stroke="#132e65" stroke-width="1.5"></path><path d="M1151.18 385.84L1262.39 554.39" stroke="#132e65" stroke-width="1.5"></path><path d="M1151.18 385.84L1282.67 214.89" stroke="#132e65" stroke-width="1.5"></path><path d="M1151.18 385.84L1399.16 356.87" stroke="#132e65" stroke-width="1.5"></path><path d="M1131.15 560.45L1131.15 560.45" stroke="#132e65" stroke-width="1.5"></path><path d="M1131.15 560.45L1154.51 659.59" stroke="#132e65" stroke-width="1.5"></path><path d="M1131.15 560.45L1262.39 554.39" stroke="#132e65" stroke-width="1.5"></path><path d="M1131.15 560.45L1264.36 711.87" stroke="#132e65" stroke-width="1.5"></path><path d="M1131.15 560.45L1250.29 387.98" stroke="#132e65" stroke-width="1.5"></path><path d="M1154.51 659.59L1154.51 659.59" stroke="#132e65" stroke-width="1.5"></path><path d="M1154.51 659.59L1264.36 711.87" stroke="#132e65" stroke-width="1.5"></path><path d="M1154.51 659.59L1262.39 554.39" stroke="#132e65" stroke-width="1.5"></path><path d="M1154.51 659.59L1151.18 385.84" stroke="#132e65" stroke-width="1.5"></path><path d="M1154.51 659.59L1400.25 513.16" stroke="#132e65" stroke-width="1.5"></path><path d="M1248.59 -38.34L1248.59 -38.34" stroke="#132e65" stroke-width="1.5"></path><path d="M1248.59 -38.34L1287.94 74.35" stroke="#132e65" stroke-width="1.5"></path><path d="M1287.94 74.35L1287.94 74.35" stroke="#132e65" stroke-width="1.5"></path><path d="M1287.94 74.35L1282.67 214.89" stroke="#132e65" stroke-width="1.5"></path><path d="M1287.94 74.35L1458.07 54.59" stroke="#132e65" stroke-width="1.5"></path><path d="M1287.94 74.35L1455.48 -75.92" stroke="#132e65" stroke-width="1.5"></path><path d="M1287.94 74.35L1449.57 236.82" stroke="#132e65" stroke-width="1.5"></path><path d="M1282.67 214.89L1282.67 214.89" stroke="#132e65" stroke-width="1.5"></path><path d="M1282.67 214.89L1449.57 236.82" stroke="#132e65" stroke-width="1.5"></path><path d="M1282.67 214.89L1250.29 387.98" stroke="#132e65" stroke-width="1.5"></path><path d="M1282.67 214.89L1399.16 356.87" stroke="#132e65" stroke-width="1.5"></path><path d="M1250.29 387.98L1250.29 387.98" stroke="#132e65" stroke-width="1.5"></path><path d="M1250.29 387.98L1399.16 356.87" stroke="#132e65" stroke-width="1.5"></path><path d="M1250.29 387.98L1262.39 554.39" stroke="#132e65" stroke-width="1.5"></path><path d="M1262.39 554.39L1262.39 554.39" stroke="#132e65" stroke-width="1.5"></path><path d="M1262.39 554.39L1400.25 513.16" stroke="#132e65" stroke-width="1.5"></path><path d="M1264.36 711.87L1264.36 711.87" stroke="#132e65" stroke-width="1.5"></path><path d="M1264.36 711.87L1262.39 554.39" stroke="#132e65" stroke-width="1.5"></path><path d="M1264.36 711.87L1400.25 513.16" stroke="#132e65" stroke-width="1.5"></path><path d="M1264.36 711.87L1538.27 698.21" stroke="#132e65" stroke-width="1.5"></path><path d="M1264.36 711.87L944.13 678.3" stroke="#132e65" stroke-width="1.5"></path><path d="M1455.48 -75.92L1455.48 -75.92" stroke="#132e65" stroke-width="1.5"></path><path d="M1455.48 -75.92L1575.51 -85.93" stroke="#132e65" stroke-width="1.5"></path><path d="M1455.48 -75.92L1458.07 54.59" stroke="#132e65" stroke-width="1.5"></path><path d="M1458.07 54.59L1458.07 54.59" stroke="#132e65" stroke-width="1.5"></path><path d="M1449.57 236.82L1449.57 236.82" stroke="#132e65" stroke-width="1.5"></path><path d="M1449.57 236.82L1548.14 252.69" stroke="#132e65" stroke-width="1.5"></path><path d="M1449.57 236.82L1399.16 356.87" stroke="#132e65" stroke-width="1.5"></path><path d="M1449.57 236.82L1458.07 54.59" stroke="#132e65" stroke-width="1.5"></path><path d="M1449.57 236.82L1250.29 387.98" stroke="#132e65" stroke-width="1.5"></path><path d="M1399.16 356.87L1399.16 356.87" stroke="#132e65" stroke-width="1.5"></path><path d="M1399.16 356.87L1400.25 513.16" stroke="#132e65" stroke-width="1.5"></path><path d="M1399.16 356.87L1548.14 252.69" stroke="#132e65" stroke-width="1.5"></path><path d="M1400.25 513.16L1400.25 513.16" stroke="#132e65" stroke-width="1.5"></path><path d="M1400.25 513.16L1572.97 527.24" stroke="#132e65" stroke-width="1.5"></path><path d="M1400.25 513.16L1250.29 387.98" stroke="#132e65" stroke-width="1.5"></path><path d="M1575.51 -85.93L1575.51 -85.93" stroke="#132e65" stroke-width="1.5"></path><path d="M1575.51 -85.93L1458.07 54.59" stroke="#132e65" stroke-width="1.5"></path><path d="M1575.51 -85.93L1287.94 74.35" stroke="#132e65" stroke-width="1.5"></path><path d="M1575.51 -85.93L1248.59 -38.34" stroke="#132e65" stroke-width="1.5"></path><path d="M1548.14 252.69L1548.14 252.69" stroke="#132e65" stroke-width="1.5"></path><path d="M1548.14 252.69L1458.07 54.59" stroke="#132e65" stroke-width="1.5"></path><path d="M1572.97 527.24L1572.97 527.24" stroke="#132e65" stroke-width="1.5"></path><path d="M1572.97 527.24L1538.27 698.21" stroke="#132e65" stroke-width="1.5"></path><path d="M1572.97 527.24L1399.16 356.87" stroke="#132e65" stroke-width="1.5"></path><path d="M1572.97 527.24L1548.14 252.69" stroke="#132e65" stroke-width="1.5"></path><path d="M1538.27 698.21L1538.27 698.21" stroke="#132e65" stroke-width="1.5"></path><path d="M1538.27 698.21L1400.25 513.16" stroke="#132e65" stroke-width="1.5"></path><path d="M1538.27 698.21L1262.39 554.39" stroke="#132e65" stroke-width="1.5"></path><path d="M1538.27 698.21L1399.16 356.87" stroke="#132e65" stroke-width="1.5"></path><circle r="5" cx="-62.19" cy="365.33" fill="#132e65"></circle><circle r="5" cx="-58" cy="560.58" fill="#132e65"></circle><circle r="5" cx="-39.43" cy="683.75" fill="#132e65"></circle><circle r="5" cx="83.77" cy="352.48" fill="#132e65"></circle><circle r="5" cx="100.4" cy="526.49" fill="#132e65"></circle><circle r="5" cx="58.3" cy="639.69" fill="#132e65"></circle><circle r="5" cx="239.36" cy="338.67" fill="#132e65"></circle><circle r="5" cx="200.59" cy="526.09" fill="#132e65"></circle><circle r="5" cx="228.62" cy="663.15" fill="#132e65"></circle><circle r="5" cx="363.61" cy="337.81" fill="#132e65"></circle><circle r="5" cx="380.16" cy="561" fill="#132e65"></circle><circle r="5" cx="358.27" cy="649.79" fill="#132e65"></circle><circle r="5" cx="514.98" cy="355.38" fill="#132e65"></circle><circle r="5" cx="507.6" cy="493.17" fill="#132e65"></circle><circle r="5" cx="528.99" cy="653.42" fill="#132e65"></circle><circle r="5" cx="661.88" cy="233.93" fill="#132e65"></circle><circle r="5" cx="700.99" cy="370.35" fill="#132e65"></circle><circle r="5" cx="672.41" cy="550.62" fill="#132e65"></circle><circle r="5" cx="679.77" cy="642.9" fill="#132e65"></circle><circle r="5" cx="852.41" cy="108.74" fill="#132e65"></circle><circle r="5" cx="856.88" cy="224.77" fill="#132e65"></circle><circle r="5" cx="839.07" cy="385.01" fill="#132e65"></circle><circle r="5" cx="809.58" cy="530.55" fill="#132e65"></circle><circle r="5" cx="830.21" cy="674.67" fill="#132e65"></circle><circle r="5" cx="966.03" cy="-102.07" fill="#132e65"></circle><circle r="5" cx="971.45" cy="55.04" fill="#132e65"></circle><circle r="5" cx="951.68" cy="203.35" fill="#132e65"></circle><circle r="5" cx="965.71" cy="368.11" fill="#132e65"></circle><circle r="5" cx="944.13" cy="678.3" fill="#132e65"></circle><circle r="5" cx="1134.67" cy="-102.84" fill="#132e65"></circle><circle r="5" cx="1150.15" cy="40.4" fill="#132e65"></circle><circle r="5" cx="1151.18" cy="385.84" fill="#132e65"></circle><circle r="5" cx="1131.15" cy="560.45" fill="#132e65"></circle><circle r="5" cx="1154.51" cy="659.59" fill="#132e65"></circle><circle r="5" cx="1248.59" cy="-38.34" fill="#132e65"></circle><circle r="5" cx="1287.94" cy="74.35" fill="#132e65"></circle><circle r="5" cx="1282.67" cy="214.89" fill="#132e65"></circle><circle r="5" cx="1250.29" cy="387.98" fill="#132e65"></circle><circle r="5" cx="1262.39" cy="554.39" fill="#132e65"></circle><circle r="5" cx="1264.36" cy="711.87" fill="#132e65"></circle><circle r="5" cx="1455.48" cy="-75.92" fill="#132e65"></circle><circle r="5" cx="1458.07" cy="54.59" fill="#132e65"></circle><circle r="5" cx="1449.57" cy="236.82" fill="#132e65"></circle><circle r="5" cx="1399.16" cy="356.87" fill="#132e65"></circle><circle r="5" cx="1400.25" cy="513.16" fill="#132e65"></circle><circle r="5" cx="1575.51" cy="-85.93" fill="#132e65"></circle><circle r="5" cx="1548.14" cy="252.69" fill="#132e65"></circle><circle r="5" cx="1572.97" cy="527.24" fill="#132e65"></circle><circle r="5" cx="1538.27" cy="698.21" fill="#132e65"></circle><path d="M397.8 690.48L397.8 690.48" stroke="hsl(228.5, 77.2%, 51.5%)" stroke-width="1.5"></path><path d="M397.8 690.48L537.12 664.92" stroke="hsl(228.5, 77.2%, 51.5%)" stroke-width="1.5"></path><path d="M397.8 690.48L256.79 638.46" stroke="hsl(228.5, 77.2%, 51.5%)" stroke-width="1.5"></path><path d="M397.8 690.48L357.93 498.36" stroke="hsl(228.5, 77.2%, 51.5%)" stroke-width="1.5"></path><path d="M397.8 690.48L503.91 517.71" stroke="hsl(228.5, 77.2%, 51.5%)" stroke-width="1.5"></path><path d="M397.8 690.48L256.62 527.18" stroke="hsl(228.5, 77.2%, 51.5%)" stroke-width="1.5"></path><path d="M537.12 664.92L537.12 664.92" stroke="hsl(228.5, 77.2%, 51.5%)" stroke-width="1.5"></path><path d="M537.12 664.92L665.27 668.66" stroke="hsl(228.5, 77.2%, 51.5%)" stroke-width="1.5"></path><path d="M537.12 664.92L503.91 517.71" stroke="hsl(228.5, 77.2%, 51.5%)" stroke-width="1.5"></path><path d="M677.12 549.81L677.12 549.81" stroke="hsl(228.5, 77.2%, 51.5%)" stroke-width="1.5"></path><path d="M677.12 549.81L791.35 519.14" stroke="hsl(228.5, 77.2%, 51.5%)" stroke-width="1.5"></path><path d="M677.12 549.81L665.27 668.66" stroke="hsl(228.5, 77.2%, 51.5%)" stroke-width="1.5"></path><path d="M950.66 674.42L950.66 674.42" stroke="hsl(228.5, 77.2%, 51.5%)" stroke-width="1.5"></path><path d="M950.66 674.42L848.8 695.59" stroke="hsl(228.5, 77.2%, 51.5%)" stroke-width="1.5"></path><path d="M950.66 674.42L972.93 519.72" stroke="hsl(228.5, 77.2%, 51.5%)" stroke-width="1.5"></path><path d="M-72.13 491.12L-72.13 491.12" stroke="hsl(228.5, 77.2%, 51.5%)" stroke-width="1.5"></path><path d="M-72.13 491.12L55.69 533.7" stroke="hsl(228.5, 77.2%, 51.5%)" stroke-width="1.5"></path><path d="M-72.13 491.12L-100.52 708.73" stroke="hsl(228.5, 77.2%, 51.5%)" stroke-width="1.5"></path><path d="M-72.13 491.12L61.82 671.28" stroke="hsl(228.5, 77.2%, 51.5%)" stroke-width="1.5"></path><path d="M-72.13 491.12L256.62 527.18" stroke="hsl(228.5, 77.2%, 51.5%)" stroke-width="1.5"></path><path d="M-72.13 491.12L256.79 638.46" stroke="hsl(228.5, 77.2%, 51.5%)" stroke-width="1.5"></path><path d="M-100.52 708.73L-100.52 708.73" stroke="hsl(228.5, 77.2%, 51.5%)" stroke-width="1.5"></path><path d="M-100.52 708.73L61.82 671.28" stroke="hsl(228.5, 77.2%, 51.5%)" stroke-width="1.5"></path><path d="M55.69 533.7L55.69 533.7" stroke="hsl(228.5, 77.2%, 51.5%)" stroke-width="1.5"></path><path d="M55.69 533.7L61.82 671.28" stroke="hsl(228.5, 77.2%, 51.5%)" stroke-width="1.5"></path><path d="M55.69 533.7L256.62 527.18" stroke="hsl(228.5, 77.2%, 51.5%)" stroke-width="1.5"></path><path d="M55.69 533.7L256.79 638.46" stroke="hsl(228.5, 77.2%, 51.5%)" stroke-width="1.5"></path><path d="M55.69 533.7L-100.52 708.73" stroke="hsl(228.5, 77.2%, 51.5%)" stroke-width="1.5"></path><path d="M55.69 533.7L357.93 498.36" stroke="hsl(228.5, 77.2%, 51.5%)" stroke-width="1.5"></path><path d="M61.82 671.28L61.82 671.28" stroke="hsl(228.5, 77.2%, 51.5%)" stroke-width="1.5"></path><path d="M256.62 527.18L256.62 527.18" stroke="hsl(228.5, 77.2%, 51.5%)" stroke-width="1.5"></path><path d="M256.62 527.18L357.93 498.36" stroke="hsl(228.5, 77.2%, 51.5%)" stroke-width="1.5"></path><path d="M256.62 527.18L256.79 638.46" stroke="hsl(228.5, 77.2%, 51.5%)" stroke-width="1.5"></path><path d="M256.62 527.18L61.82 671.28" stroke="hsl(228.5, 77.2%, 51.5%)" stroke-width="1.5"></path><path d="M256.62 527.18L503.91 517.71" stroke="hsl(228.5, 77.2%, 51.5%)" stroke-width="1.5"></path><path d="M256.79 638.46L256.79 638.46" stroke="hsl(228.5, 77.2%, 51.5%)" stroke-width="1.5"></path><path d="M256.79 638.46L357.93 498.36" stroke="hsl(228.5, 77.2%, 51.5%)" stroke-width="1.5"></path><path d="M256.79 638.46L61.82 671.28" stroke="hsl(228.5, 77.2%, 51.5%)" stroke-width="1.5"></path><path d="M357.93 498.36L357.93 498.36" stroke="hsl(228.5, 77.2%, 51.5%)" stroke-width="1.5"></path><path d="M357.93 498.36L503.91 517.71" stroke="hsl(228.5, 77.2%, 51.5%)" stroke-width="1.5"></path><path d="M535.17 405.8L535.17 405.8" stroke="hsl(228.5, 77.2%, 51.5%)" stroke-width="1.5"></path><path d="M535.17 405.8L503.91 517.71" stroke="hsl(228.5, 77.2%, 51.5%)" stroke-width="1.5"></path><path d="M535.17 405.8L662.83 398.07" stroke="hsl(228.5, 77.2%, 51.5%)" stroke-width="1.5"></path><path d="M535.17 405.8L357.93 498.36" stroke="hsl(228.5, 77.2%, 51.5%)" stroke-width="1.5"></path><path d="M535.17 405.8L677.12 549.81" stroke="hsl(228.5, 77.2%, 51.5%)" stroke-width="1.5"></path><path d="M535.17 405.8L537.12 664.92" stroke="hsl(228.5, 77.2%, 51.5%)" stroke-width="1.5"></path><path d="M503.91 517.71L503.91 517.71" stroke="hsl(228.5, 77.2%, 51.5%)" stroke-width="1.5"></path><path d="M503.91 517.71L677.12 549.81" stroke="hsl(228.5, 77.2%, 51.5%)" stroke-width="1.5"></path><path d="M662.83 398.07L662.83 398.07" stroke="hsl(228.5, 77.2%, 51.5%)" stroke-width="1.5"></path><path d="M662.83 398.07L677.12 549.81" stroke="hsl(228.5, 77.2%, 51.5%)" stroke-width="1.5"></path><path d="M662.83 398.07L815.87 398.8" stroke="hsl(228.5, 77.2%, 51.5%)" stroke-width="1.5"></path><path d="M662.83 398.07L791.35 519.14" stroke="hsl(228.5, 77.2%, 51.5%)" stroke-width="1.5"></path><path d="M662.83 398.07L503.91 517.71" stroke="hsl(228.5, 77.2%, 51.5%)" stroke-width="1.5"></path><path d="M665.27 668.66L665.27 668.66" stroke="hsl(228.5, 77.2%, 51.5%)" stroke-width="1.5"></path><path d="M665.27 668.66L848.8 695.59" stroke="hsl(228.5, 77.2%, 51.5%)" stroke-width="1.5"></path><path d="M665.27 668.66L791.35 519.14" stroke="hsl(228.5, 77.2%, 51.5%)" stroke-width="1.5"></path><path d="M665.27 668.66L503.91 517.71" stroke="hsl(228.5, 77.2%, 51.5%)" stroke-width="1.5"></path><path d="M815.87 398.8L815.87 398.8" stroke="hsl(228.5, 77.2%, 51.5%)" stroke-width="1.5"></path><path d="M815.87 398.8L791.35 519.14" stroke="hsl(228.5, 77.2%, 51.5%)" stroke-width="1.5"></path><path d="M815.87 398.8L993.83 358.85" stroke="hsl(228.5, 77.2%, 51.5%)" stroke-width="1.5"></path><path d="M815.87 398.8L972.93 519.72" stroke="hsl(228.5, 77.2%, 51.5%)" stroke-width="1.5"></path><path d="M791.35 519.14L791.35 519.14" stroke="hsl(228.5, 77.2%, 51.5%)" stroke-width="1.5"></path><path d="M791.35 519.14L972.93 519.72" stroke="hsl(228.5, 77.2%, 51.5%)" stroke-width="1.5"></path><path d="M791.35 519.14L848.8 695.59" stroke="hsl(228.5, 77.2%, 51.5%)" stroke-width="1.5"></path><path d="M848.8 695.59L848.8 695.59" stroke="hsl(228.5, 77.2%, 51.5%)" stroke-width="1.5"></path><path d="M848.8 695.59L972.93 519.72" stroke="hsl(228.5, 77.2%, 51.5%)" stroke-width="1.5"></path><path d="M848.8 695.59L677.12 549.81" stroke="hsl(228.5, 77.2%, 51.5%)" stroke-width="1.5"></path><path d="M993.83 358.85L993.83 358.85" stroke="hsl(228.5, 77.2%, 51.5%)" stroke-width="1.5"></path><path d="M993.83 358.85L1118.52 342.06" stroke="hsl(228.5, 77.2%, 51.5%)" stroke-width="1.5"></path><path d="M972.93 519.72L972.93 519.72" stroke="hsl(228.5, 77.2%, 51.5%)" stroke-width="1.5"></path><path d="M972.93 519.72L1120.05 551.77" stroke="hsl(228.5, 77.2%, 51.5%)" stroke-width="1.5"></path><path d="M1107.76 257L1107.76 257" stroke="hsl(228.5, 77.2%, 51.5%)" stroke-width="1.5"></path><path d="M1107.76 257L1118.52 342.06" stroke="hsl(228.5, 77.2%, 51.5%)" stroke-width="1.5"></path><path d="M1107.76 257L993.83 358.85" stroke="hsl(228.5, 77.2%, 51.5%)" stroke-width="1.5"></path><path d="M1107.76 257L1257.27 189.07" stroke="hsl(228.5, 77.2%, 51.5%)" stroke-width="1.5"></path><path d="M1107.76 257L1303.48 371.28" stroke="hsl(228.5, 77.2%, 51.5%)" stroke-width="1.5"></path><path d="M1118.52 342.06L1118.52 342.06" stroke="hsl(228.5, 77.2%, 51.5%)" stroke-width="1.5"></path><path d="M1120.05 551.77L1120.05 551.77" stroke="hsl(228.5, 77.2%, 51.5%)" stroke-width="1.5"></path><path d="M1120.05 551.77L1121.66 658.38" stroke="hsl(228.5, 77.2%, 51.5%)" stroke-width="1.5"></path><path d="M1120.05 551.77L1254.58 638.09" stroke="hsl(228.5, 77.2%, 51.5%)" stroke-width="1.5"></path><path d="M1120.05 551.77L1292.26 493.85" stroke="hsl(228.5, 77.2%, 51.5%)" stroke-width="1.5"></path><path d="M1120.05 551.77L950.66 674.42" stroke="hsl(228.5, 77.2%, 51.5%)" stroke-width="1.5"></path><path d="M1121.66 658.38L1121.66 658.38" stroke="hsl(228.5, 77.2%, 51.5%)" stroke-width="1.5"></path><path d="M1121.66 658.38L1254.58 638.09" stroke="hsl(228.5, 77.2%, 51.5%)" stroke-width="1.5"></path><path d="M1121.66 658.38L950.66 674.42" stroke="hsl(228.5, 77.2%, 51.5%)" stroke-width="1.5"></path><path d="M1121.66 658.38L972.93 519.72" stroke="hsl(228.5, 77.2%, 51.5%)" stroke-width="1.5"></path><path d="M1289.71 -70.15L1289.71 -70.15" stroke="hsl(228.5, 77.2%, 51.5%)" stroke-width="1.5"></path><path d="M1289.71 -70.15L1266.81 76.18" stroke="hsl(228.5, 77.2%, 51.5%)" stroke-width="1.5"></path><path d="M1289.71 -70.15L1257.27 189.07" stroke="hsl(228.5, 77.2%, 51.5%)" stroke-width="1.5"></path><path d="M1266.81 76.18L1266.81 76.18" stroke="hsl(228.5, 77.2%, 51.5%)" stroke-width="1.5"></path><path d="M1266.81 76.18L1257.27 189.07" stroke="hsl(228.5, 77.2%, 51.5%)" stroke-width="1.5"></path><path d="M1257.27 189.07L1257.27 189.07" stroke="hsl(228.5, 77.2%, 51.5%)" stroke-width="1.5"></path><path d="M1257.27 189.07L1423.83 219.08" stroke="hsl(228.5, 77.2%, 51.5%)" stroke-width="1.5"></path><path d="M1257.27 189.07L1303.48 371.28" stroke="hsl(228.5, 77.2%, 51.5%)" stroke-width="1.5"></path><path d="M1303.48 371.28L1303.48 371.28" stroke="hsl(228.5, 77.2%, 51.5%)" stroke-width="1.5"></path><path d="M1303.48 371.28L1292.26 493.85" stroke="hsl(228.5, 77.2%, 51.5%)" stroke-width="1.5"></path><path d="M1303.48 371.28L1436.21 368.17" stroke="hsl(228.5, 77.2%, 51.5%)" stroke-width="1.5"></path><path d="M1292.26 493.85L1292.26 493.85" stroke="hsl(228.5, 77.2%, 51.5%)" stroke-width="1.5"></path><path d="M1292.26 493.85L1408.46 496.1" stroke="hsl(228.5, 77.2%, 51.5%)" stroke-width="1.5"></path><path d="M1254.58 638.09L1254.58 638.09" stroke="hsl(228.5, 77.2%, 51.5%)" stroke-width="1.5"></path><path d="M1254.58 638.09L1292.26 493.85" stroke="hsl(228.5, 77.2%, 51.5%)" stroke-width="1.5"></path><path d="M1254.58 638.09L1420.93 697.58" stroke="hsl(228.5, 77.2%, 51.5%)" stroke-width="1.5"></path><path d="M1254.58 638.09L1408.46 496.1" stroke="hsl(228.5, 77.2%, 51.5%)" stroke-width="1.5"></path><path d="M1254.58 638.09L1303.48 371.28" stroke="hsl(228.5, 77.2%, 51.5%)" stroke-width="1.5"></path><path d="M1423.83 219.08L1423.83 219.08" stroke="hsl(228.5, 77.2%, 51.5%)" stroke-width="1.5"></path><path d="M1423.83 219.08L1558.84 251.68" stroke="hsl(228.5, 77.2%, 51.5%)" stroke-width="1.5"></path><path d="M1423.83 219.08L1436.21 368.17" stroke="hsl(228.5, 77.2%, 51.5%)" stroke-width="1.5"></path><path d="M1436.21 368.17L1436.21 368.17" stroke="hsl(228.5, 77.2%, 51.5%)" stroke-width="1.5"></path><path d="M1436.21 368.17L1408.46 496.1" stroke="hsl(228.5, 77.2%, 51.5%)" stroke-width="1.5"></path><path d="M1436.21 368.17L1574.19 341.9" stroke="hsl(228.5, 77.2%, 51.5%)" stroke-width="1.5"></path><path d="M1436.21 368.17L1558.84 251.68" stroke="hsl(228.5, 77.2%, 51.5%)" stroke-width="1.5"></path><path d="M1408.46 496.1L1408.46 496.1" stroke="hsl(228.5, 77.2%, 51.5%)" stroke-width="1.5"></path><path d="M1408.46 496.1L1550.17 536.03" stroke="hsl(228.5, 77.2%, 51.5%)" stroke-width="1.5"></path><path d="M1420.93 697.58L1420.93 697.58" stroke="hsl(228.5, 77.2%, 51.5%)" stroke-width="1.5"></path><path d="M1420.93 697.58L1551.02 653.98" stroke="hsl(228.5, 77.2%, 51.5%)" stroke-width="1.5"></path><path d="M1420.93 697.58L1408.46 496.1" stroke="hsl(228.5, 77.2%, 51.5%)" stroke-width="1.5"></path><path d="M1589.19 -85.56L1589.19 -85.56" stroke="hsl(228.5, 77.2%, 51.5%)" stroke-width="1.5"></path><path d="M1589.19 -85.56L1563.54 89.46" stroke="hsl(228.5, 77.2%, 51.5%)" stroke-width="1.5"></path><path d="M1589.19 -85.56L1289.71 -70.15" stroke="hsl(228.5, 77.2%, 51.5%)" stroke-width="1.5"></path><path d="M1563.54 89.46L1563.54 89.46" stroke="hsl(228.5, 77.2%, 51.5%)" stroke-width="1.5"></path><path d="M1563.54 89.46L1558.84 251.68" stroke="hsl(228.5, 77.2%, 51.5%)" stroke-width="1.5"></path><path d="M1563.54 89.46L1423.83 219.08" stroke="hsl(228.5, 77.2%, 51.5%)" stroke-width="1.5"></path><path d="M1563.54 89.46L1574.19 341.9" stroke="hsl(228.5, 77.2%, 51.5%)" stroke-width="1.5"></path><path d="M1558.84 251.68L1558.84 251.68" stroke="hsl(228.5, 77.2%, 51.5%)" stroke-width="1.5"></path><path d="M1558.84 251.68L1574.19 341.9" stroke="hsl(228.5, 77.2%, 51.5%)" stroke-width="1.5"></path><path d="M1574.19 341.9L1574.19 341.9" stroke="hsl(228.5, 77.2%, 51.5%)" stroke-width="1.5"></path><path d="M1574.19 341.9L1423.83 219.08" stroke="hsl(228.5, 77.2%, 51.5%)" stroke-width="1.5"></path><path d="M1574.19 341.9L1550.17 536.03" stroke="hsl(228.5, 77.2%, 51.5%)" stroke-width="1.5"></path><path d="M1574.19 341.9L1408.46 496.1" stroke="hsl(228.5, 77.2%, 51.5%)" stroke-width="1.5"></path><path d="M1550.17 536.03L1550.17 536.03" stroke="hsl(228.5, 77.2%, 51.5%)" stroke-width="1.5"></path><path d="M1550.17 536.03L1551.02 653.98" stroke="hsl(228.5, 77.2%, 51.5%)" stroke-width="1.5"></path><path d="M1550.17 536.03L1436.21 368.17" stroke="hsl(228.5, 77.2%, 51.5%)" stroke-width="1.5"></path><path d="M1550.17 536.03L1420.93 697.58" stroke="hsl(228.5, 77.2%, 51.5%)" stroke-width="1.5"></path><path d="M1550.17 536.03L1292.26 493.85" stroke="hsl(228.5, 77.2%, 51.5%)" stroke-width="1.5"></path><path d="M1551.02 653.98L1551.02 653.98" stroke="hsl(228.5, 77.2%, 51.5%)" stroke-width="1.5"></path><circle r="25" cx="397.8" cy="690.48" fill="url(#SvgjsRadialGradient1001)"></circle><circle r="25" cx="537.12" cy="664.92" fill="url(#SvgjsRadialGradient1001)"></circle><circle r="25" cx="677.12" cy="549.81" fill="url(#SvgjsRadialGradient1001)"></circle><circle r="25" cx="950.66" cy="674.42" fill="url(#SvgjsRadialGradient1001)"></circle><circle r="5" cx="-72.13" cy="491.12" fill="#8b9ad9"></circle><circle r="5" cx="-100.52" cy="708.73" fill="#8b9ad9"></circle><circle r="5" cx="55.69" cy="533.7" fill="#8b9ad9"></circle><circle r="5" cx="61.82" cy="671.28" fill="#8b9ad9"></circle><circle r="5" cx="256.62" cy="527.18" fill="#8b9ad9"></circle><circle r="5" cx="256.79" cy="638.46" fill="#8b9ad9"></circle><circle r="5" cx="357.93" cy="498.36" fill="#8b9ad9"></circle><circle r="5" cx="535.17" cy="405.8" fill="#8b9ad9"></circle><circle r="5" cx="503.91" cy="517.71" fill="#8b9ad9"></circle><circle r="5" cx="662.83" cy="398.07" fill="#8b9ad9"></circle><circle r="5" cx="665.27" cy="668.66" fill="#8b9ad9"></circle><circle r="5" cx="815.87" cy="398.8" fill="#8b9ad9"></circle><circle r="5" cx="791.35" cy="519.14" fill="#8b9ad9"></circle><circle r="5" cx="848.8" cy="695.59" fill="#8b9ad9"></circle><circle r="5" cx="993.83" cy="358.85" fill="#8b9ad9"></circle><circle r="5" cx="972.93" cy="519.72" fill="#8b9ad9"></circle><circle r="5" cx="1107.76" cy="257" fill="#8b9ad9"></circle><circle r="5" cx="1118.52" cy="342.06" fill="#8b9ad9"></circle><circle r="5" cx="1120.05" cy="551.77" fill="#8b9ad9"></circle><circle r="5" cx="1121.66" cy="658.38" fill="#8b9ad9"></circle><circle r="5" cx="1289.71" cy="-70.15" fill="#8b9ad9"></circle><circle r="5" cx="1266.81" cy="76.18" fill="#8b9ad9"></circle><circle r="5" cx="1257.27" cy="189.07" fill="#8b9ad9"></circle><circle r="5" cx="1303.48" cy="371.28" fill="#8b9ad9"></circle><circle r="5" cx="1292.26" cy="493.85" fill="#8b9ad9"></circle><circle r="5" cx="1254.58" cy="638.09" fill="#8b9ad9"></circle><circle r="5" cx="1423.83" cy="219.08" fill="#8b9ad9"></circle><circle r="5" cx="1436.21" cy="368.17" fill="#8b9ad9"></circle><circle r="5" cx="1408.46" cy="496.1" fill="#8b9ad9"></circle><circle r="5" cx="1420.93" cy="697.58" fill="#8b9ad9"></circle><circle r="5" cx="1589.19" cy="-85.56" fill="#8b9ad9"></circle><circle r="5" cx="1563.54" cy="89.46" fill="#8b9ad9"></circle><circle r="5" cx="1558.84" cy="251.68" fill="#8b9ad9"></circle><circle r="5" cx="1574.19" cy="341.9" fill="#8b9ad9"></circle><circle r="5" cx="1550.17" cy="536.03" fill="#8b9ad9"></circle><circle r="5" cx="1551.02" cy="653.98" fill="#8b9ad9"></circle></g><defs><mask id="SvgjsMask1000"><rect width="1440" height="560" fill="#ffffff"></rect></mask><radialGradient id="SvgjsRadialGradient1001"><stop stop-color="#ffffff" offset="0.1"></stop><stop stop-color="#1735b3" offset="0.2"></stop><stop stop-color="rgba(23, 53, 179, 0)" offset="1"></stop></radialGradient></defs></svg>